<svg xmlns="http://www.w3.org/2000/svg" width="304.3" height="200" class="icon" viewBox="0 0 1558 1024">
  <path fill="#F56C6C"
    d="M331 811s-14 33 20 102c34 68 90 111 90 111s-18-49 7-107 46-82 46-82 28 33 81 33 110-4 139-20l48-25s62 70 138 70c75-1 122-24 138-52l38-65s92 61 183 45c92-15 131-42 153-107s23-76 23-76 119-24 123-121-19-158-89-196l-70-39s13-102-64-151c-77-50-159-65-229-35s-76 29-76 29S945 0 842 0 653 10 608 60s-44 60-44 60-153-95-264-30-96 142-96 142-153 4-188 96-4 152 13 171 74 67 74 67-39 69 3 131 59 85 116 101c58 17 109 13 109 13" />
  <path fill="rgb(248, 152, 152)"
    d="M330 782s-11 54 22 118c34 64 65 83 65 83s4-46 29-101c26-54 45-77 45-77s28 32 80 31 109-4 139-19l47-23s61 66 136 65 122-22 137-48l38-62s91 58 182 43c90-14 129-40 150-101s24-71 24-71 118-23 122-114-19-149-88-185l-70-36s13-96-63-143-157-61-227-33c-69 28-75 28-75 28S939 19 837 19s-188 9-232 57-43 55-43 55-152-89-262-28-95 135-95 135-152 3-187 90-4 143 13 161 74 62 74 62-39 65 3 124 58 80 115 95 107 12 107 12"
    class="selected" data-spm-anchor-id="a313x.search_index.0.i0.3b363a81Dv5N6l" />
  <path fill="rgb(248, 152, 152)"
    d="M25 645s-20 41 4 103 49 81 86 98 57 15 57 15 4-9-11-17-83-27-102-94L30 648zm1428 102s2 22 0 37-7 39-31 65-62 40-62 40-7 11 2 12c10 2 54-11 74-42s27-38 27-56v-48l42 14s13-8 3-12c-9-5-50-15-50-15s-4 1-5 5m17-610q-4 0-6-4c-1 0-33-58-93-92-58-33-144 0-145 1q-7 1-10-5-2-7 4-10c4-2 95-36 159 0 63 36 97 96 98 99q3 6-3 11z" />
</svg>