<svg xmlns="http://www.w3.org/2000/svg" width="48" height="48" class="icon" viewBox="0 0 1024 1024">
  <path stroke="#f1760b" fill="none" d="m708 932 1 2 1-1q8-180 113-274c34-30 46-70 36-111-9-35-34-64-59-70q-23-4-43 7l-10 6-2 1-2 2h-1l-1 1-5 2h-7l-6-2-7-5-3-6-1-6v-3l1-2 2-5v-1l1-1c10-15 18-54 15-87q-6-70-74-98c-69-27-115-4-147 72-8 18-34 15-38-3q-27-139-148-118c-89 17-119 70-94 167 5 18-16 32-31 20q-62-50-138-6l-2 1-1 1c-48 37-58 73-42 119l1 2 1 4 1 1 2 4v1l2 4 1 3 2 4 2 3 2 4 2 3 2 4 2 4 3 3 2 4 3 4 3 5 3 4 3 5 3 4 4 5 5 8 8 11 14 18q16 23 28 56l1 6q7 22 11 49l1 7 1 7 1 3 1 7 1 8v7l1 4v7l1 8v8l1 8v9l1 8v63l-1 10v10"/>
</svg>
